<svg width="60" height="60" viewBox="0 0 60 60" fill="none" xmlns="http://www.w3.org/2000/svg">
<path d="M26.5625 0H2.5C1.11719 0 0 1.11719 0 2.5V26.5625C0 26.9062 0.28125 27.1875 0.625 27.1875H26.5625C26.9062 27.1875 27.1875 26.9062 27.1875 26.5625V0.625C27.1875 0.28125 26.9062 0 26.5625 0ZM22.1875 22.1875H5V5H22.1875V22.1875ZM11.4062 16.4062H15.7812C16.125 16.4062 16.4062 16.125 16.4062 15.7812V11.4062C16.4062 11.0625 16.125 10.7812 15.7812 10.7812H11.4062C11.0625 10.7812 10.7812 11.0625 10.7812 11.4062V15.7812C10.7812 16.125 11.0625 16.4062 11.4062 16.4062ZM26.5625 32.8125H0.625C0.28125 32.8125 0 33.0938 0 33.4375V57.5C0 58.8828 1.11719 60 2.5 60H26.5625C26.9062 60 27.1875 59.7188 27.1875 59.375V33.4375C27.1875 33.0938 26.9062 32.8125 26.5625 32.8125ZM22.1875 55H5V37.8125H22.1875V55ZM11.4062 49.2188H15.7812C16.125 49.2188 16.4062 48.9375 16.4062 48.5938V44.2188C16.4062 43.875 16.125 43.5938 15.7812 43.5938H11.4062C11.0625 43.5938 10.7812 43.875 10.7812 44.2188V48.5938C10.7812 48.9375 11.0625 49.2188 11.4062 49.2188ZM57.5 0H33.4375C33.0938 0 32.8125 0.28125 32.8125 0.625V26.5625C32.8125 26.9062 33.0938 27.1875 33.4375 27.1875H59.375C59.7188 27.1875 60 26.9062 60 26.5625V2.5C60 1.11719 58.8828 0 57.5 0ZM55 22.1875H37.8125V5H55V22.1875ZM44.2188 16.4062H48.5938C48.9375 16.4062 49.2188 16.125 49.2188 15.7812V11.4062C49.2188 11.0625 48.9375 10.7812 48.5938 10.7812H44.2188C43.875 10.7812 43.5938 11.0625 43.5938 11.4062V15.7812C43.5938 16.125 43.875 16.4062 44.2188 16.4062ZM59.375 32.8125H55.625C55.2812 32.8125 55 33.0938 55 33.4375V43.9062H48.9062V33.4375C48.9062 33.0938 48.625 32.8125 48.2812 32.8125H33.4375C33.0938 32.8125 32.8125 33.0938 32.8125 33.4375V59.375C32.8125 59.7188 33.0938 60 33.4375 60H37.1875C37.5312 60 37.8125 59.7188 37.8125 59.375V40.3125H43.9062V48.2812C43.9062 48.625 44.1875 48.9062 44.5312 48.9062H59.375C59.7188 48.9062 60 48.625 60 48.2812V33.4375C60 33.0938 59.7188 32.8125 59.375 32.8125ZM48.2812 55H44.5312C44.1875 55 43.9062 55.2812 43.9062 55.625V59.375C43.9062 59.7188 44.1875 60 44.5312 60H48.2812C48.625 60 48.9062 59.7188 48.9062 59.375V55.625C48.9062 55.2812 48.625 55 48.2812 55ZM59.375 55H55.625C55.2812 55 55 55.2812 55 55.625V59.375C55 59.7188 55.2812 60 55.625 60H59.375C59.7188 60 60 59.7188 60 59.375V55.625C60 55.2812 59.7188 55 59.375 55Z" fill="#EEEEEE"/>
</svg>
